<?xml version="1.0" standalone="no"?>
<!DOCTYPE svg PUBLIC "-//W3C//DTD SVG 20010904//EN"
 "http://www.w3.org/TR/2001/REC-SVG-20010904/DTD/svg10.dtd">
<svg version="1.0" xmlns="http://www.w3.org/2000/svg"
 width="1024.000000pt" height="214.000000pt" viewBox="0 0 1024.000000 214.000000"
 preserveAspectRatio="xMidYMid meet">

<g transform="translate(0.000000,214.000000) scale(0.100000,-0.100000)"
fill="#000000" stroke="none">
<path d="M9429 1328 c-73 -95 -137 -179 -142 -185 -7 -9 8 -34 47 -83 54 -67
85 -95 52 -48 -9 12 -16 41 -16 63 0 36 13 57 115 193 121 161 138 199 96 222
-18 9 -34 -9 -152 -162z"/>
<path d="M2886 1437 c-10 -84 -7 -525 4 -532 5 -3 19 -3 32 0 l23 6 -3 257
c-2 251 -9 305 -37 315 -9 4 -14 -10 -19 -46z"/>
<path d="M7127 1484 c-11 -11 -8 -572 3 -579 5 -3 19 -3 32 0 l23 6 -5 269
c-5 255 -6 271 -26 290 -11 11 -23 17 -27 14z"/>
<path d="M1296 1348 c-30 -57 -62 -119 -71 -139 l-17 -35 -61 13 c-120 25
-204 9 -222 -41 -8 -25 -6 -31 18 -52 34 -29 63 -31 72 -4 10 33 45 44 137 45
71 0 92 4 114 21 34 25 124 190 124 227 0 31 -16 67 -30 67 -5 0 -34 -46 -64
-102z"/>
<path d="M9040 1436 c0 -2 8 -10 18 -17 15 -13 16 -12 3 4 -13 16 -21 21 -21
13z"/>
<path d="M6580 1388 c24 -82 4 -163 -56 -221 l-41 -40 41 -32 c67 -51 86 -87
86 -164 -1 -110 -44 -176 -145 -223 -48 -22 -60 -23 -372 -26 -183 -2 -323 -7
-323 -13 0 -4 12 -17 27 -26 24 -16 58 -18 283 -21 141 -2 290 1 332 7 117 16
191 59 228 131 40 80 33 155 -21 241 -36 56 -36 91 -4 161 31 66 33 136 4 194
-11 23 -26 48 -34 54 -12 10 -13 7 -5 -22z"/>
<path d="M5230 1378 c26 -88 -7 -216 -66 -254 l-23 -16 48 -68 c51 -74 103
-211 116 -307 l7 -53 -174 0 -173 -1 27 -24 c35 -30 93 -39 215 -33 80 5 97 9
118 28 41 39 27 127 -43 265 -55 110 -56 117 -22 202 21 53 30 91 30 131 0 59
-24 126 -53 150 -15 12 -15 10 -7 -20z"/>
<path d="M6090 1305 l0 -85 29 0 c23 0 30 6 37 33 5 18 19 36 32 42 55 24 -4
95 -79 95 -17 0 -19 -9 -19 -85z"/>
<path d="M4740 1295 l0 -85 28 6 c38 9 42 13 42 35 0 10 9 24 20 31 11 7 20
21 20 31 0 29 -45 67 -80 67 l-30 0 0 -85z"/>
<path d="M2399 1365 c-3 -2 -48 -169 -100 -370 -53 -206 -99 -365 -105 -365
-6 0 -159 38 -339 85 -180 47 -334 85 -343 85 -13 0 -12 -3 3 -20 22 -24 63
-37 410 -125 242 -62 274 -68 301 -57 16 7 35 22 42 33 11 17 154 541 176 646
10 44 -24 110 -45 88z"/>
<path d="M4241 1348 c-4 -13 -48 -179 -97 -370 -50 -197 -94 -348 -100 -348
-6 0 -157 38 -335 84 -178 46 -349 89 -379 95 -30 6 -65 13 -77 17 -22 6 -23
4 -23 -70 l0 -76 -330 0 c-208 0 -330 -4 -330 -10 0 -5 12 -18 27 -27 24 -16
57 -18 323 -18 345 0 337 -2 367 91 9 31 23 58 30 61 6 3 45 -7 85 -20 90 -31
616 -167 646 -167 12 0 35 12 52 27 28 26 37 55 116 357 84 322 86 330 70 363
-18 39 -33 42 -45 11z"/>
<path d="M8476 1343 c-31 -143 -185 -708 -193 -710 -6 -2 -160 35 -343 83
-184 47 -354 89 -379 94 -25 5 -56 11 -67 15 -26 8 -34 -14 -34 -92 l0 -53
-332 0 -333 0 28 -27 27 -28 303 0 c224 0 308 3 324 13 13 7 31 37 44 73 12
34 28 63 35 66 7 3 37 -4 67 -15 58 -22 576 -158 639 -168 46 -8 84 14 103 59
23 57 165 614 165 649 0 21 -7 41 -18 51 -25 23 -28 22 -36 -10z"/>
<path d="M1836 1148 c-9 -39 -13 -75 -9 -79 5 -4 23 -10 41 -14 29 -6 32 -4
32 17 0 30 36 65 70 70 16 2 26 10 28 23 2 17 -7 23 -65 38 -37 9 -71 17 -74
17 -4 0 -14 -32 -23 -72z"/>
<path d="M3685 1148 c-9 -39 -12 -74 -8 -78 4 -5 23 -11 41 -15 29 -6 32 -4
32 17 0 30 36 65 70 70 17 2 25 9 25 22 0 15 -13 24 -60 38 -33 10 -65 18 -72
18 -6 0 -19 -32 -28 -72z"/>
<path d="M7930 1183 c-6 -21 -13 -57 -17 -80 -5 -38 -3 -43 13 -43 11 0 29 -3
42 -6 18 -5 22 -2 22 18 0 35 21 59 60 67 51 10 48 41 -5 57 -102 29 -103 29
-115 -13z"/>
<path d="M6090 976 l0 -96 30 0 c26 0 30 4 30 28 0 35 26 72 51 72 54 0 -7 77
-68 86 l-43 7 0 -97z"/>
<path d="M4740 845 l0 -165 -160 0 c-97 0 -160 -4 -160 -10 0 -5 12 -18 27
-27 22 -15 49 -18 143 -18 63 0 127 3 142 8 39 10 58 54 58 129 0 88 15 135
45 145 22 7 23 10 12 33 -13 26 -71 70 -93 70 -11 0 -14 -33 -14 -165z"/>
<path d="M1269 968 c5 -14 30 -66 55 -116 l45 -90 -24 -16 c-60 -39 -178 -69
-294 -74 -125 -5 -192 5 -281 45 l-55 24 30 -25 c116 -95 333 -131 510 -83
152 42 168 84 91 235 -47 89 -99 158 -77 100z"/>
<path d="M9415 960 c10 -11 20 -20 23 -20 3 0 -3 9 -13 20 -10 11 -20 20 -23
20 -3 0 3 -9 13 -20z"/>
<path d="M9440 926 c0 -2 8 -10 18 -17 15 -13 16 -12 3 4 -13 16 -21 21 -21
13z"/>
<path d="M9480 876 c0 -2 8 -10 18 -17 15 -13 16 -12 3 4 -13 16 -21 21 -21
13z"/>
<path d="M9044 828 c-11 -12 -42 -51 -68 -85 l-47 -63 -150 0 c-82 0 -149 -3
-149 -7 1 -37 56 -53 175 -53 135 1 169 12 236 76 32 30 67 54 78 54 29 0 27
9 -17 58 l-37 44 -21 -24z"/>
<path d="M9520 826 c0 -2 8 -10 18 -17 15 -13 16 -12 3 4 -13 16 -21 21 -21
13z"/>
<path d="M9565 770 c10 -11 20 -20 23 -20 3 0 -3 9 -13 20 -10 11 -20 20 -23
20 -3 0 3 -9 13 -20z"/>
<path d="M9244 661 c24 -27 99 -41 209 -40 102 0 160 15 165 42 3 16 -11 17
-194 17 -194 0 -197 0 -180 -19z"/>
</g>
</svg>
